<svg style="display:none"><symbol viewBox="0 0 90 90" id="facebook29"><path d="M90 15c0-7.88-7.116-15-15-15H15C7.116 0 0 7.12 0 15v60c0 7.88 7.116 15 15 15h30V56H34V41h11v-5.844C45 25.076 52.568 16 61.875 16H74v15H61.875C60.548 31 59 32.61 59 35.024V41h15v15H59v34h16c7.884 0 15-7.12 15-15V15z"/></symbol><symbol viewBox="0 0 97.395 97.395" id="instagram12"><path d="M12.5 0h72.394c6.875 0 12.5 5.09 12.5 12.5v72.395c0 7.41-5.625 12.5-12.5 12.5H12.5c-6.876 0-12.5-5.09-12.5-12.5V12.5C0 5.09 5.624 0 12.5 0zM70.95 10.82a4.395 4.395 0 0 0-4.383 4.386V25.7a4.396 4.396 0 0 0 4.383 4.386h11.008A4.398 4.398 0 0 0 86.34 25.7V15.207a4.397 4.397 0 0 0-4.384-4.385H70.948zm15.44 30.368h-8.573a28.486 28.486 0 0 1 1.25 8.355c0 16.2-13.556 29.332-30.275 29.332-16.718 0-30.272-13.132-30.272-29.332 0-2.904.438-5.708 1.25-8.355h-8.945v41.14a3.884 3.884 0 0 0 3.872 3.873h67.822a3.883 3.883 0 0 0 3.872-3.87V41.187h-.003zm-37.6-11.655c-10.8 0-19.56 8.485-19.56 18.953S37.99 67.44 48.79 67.44c10.804 0 19.563-8.486 19.563-18.954s-8.757-18.953-19.56-18.953z"/></symbol><symbol viewBox="0 0 30 28" id="vk"><path d="M29.953 8.125q.36 1-2.344 4.594-.38.5-1.02 1.32-1.22 1.563-1.41 2.047-.266.64.22 1.266.265.327 1.265 1.28h.016l.064.063q2.203 2.047 2.984 3.453.047.077.102.194t.11.412-.01.53-.39.43-.922.196l-4 .063q-.373.08-.873-.078t-.813-.344l-.313-.187q-.47-.327-1.093-1t-1.07-1.21-.95-.906-.883-.242q-.047.017-.125.056t-.267.226-.336.46-.265.812-.102 1.21q0 .233-.052.43t-.118.29l-.064.076q-.28.297-.83.344h-1.8q-1.11.064-2.28-.257t-2.055-.828-1.61-1.03-1.1-.9l-.39-.375q-.155-.155-.43-.47t-1.116-1.42-1.655-2.36-1.92-3.292T.07 8.73q-.093-.25-.093-.423t.048-.25l.067-.09q.234-.296.89-.296l4.282-.03q.187.03.36.1t.25.137l.077.047q.25.172.375.5.313.78.72 1.617t.64 1.273l.25.453q.453.938.875 1.625t.76 1.07.645.603.53.22.423-.08q.03-.015.077-.077t.187-.344.21-.732.15-1.266 0-1.952q-.03-.62-.14-1.14t-.22-.72l-.093-.182q-.39-.53-1.33-.672-.204-.03.08-.375.263-.297.59-.47.827-.405 3.733-.374 1.28.015 2.11.202.312.076.522.21t.32.374.163.5.054.71-.018.86-.04 1.102-.022 1.29q0 .17-.015.655t-.01.75.054.635.18.61.353.382l.266.063q.14.032.406-.173t.592-.54.813-1.046 1.063-1.68q.938-1.624 1.672-3.515.06-.157.154-.274t.17-.165l.064-.046.077-.04.204-.048.314-.007 4.5-.03q.61-.08 1 .037t.485.26z"/></symbol></svg>